# xmcd CD database file
#
# Track frame offsets:
#	150
#	7624
#	28963
#	42025
#	61472
#	91026
#	113544
#	127196
#	140026
#	155920
#	178888
#	196792
#	223714
#
# Disc length: 3192 seconds
#
# Revision: 1
# Processed by: cddbd v1.5.2PL0 Copyright (c) Steve Scherf et al.
# Submitted via: CDex 1.51
#
DISCID=b30c760d
DTITLE=Zoox - Ups and Downs
DYEAR=2011
DGENRE=Country
TTITLE0=La Belle Catherine
TTITLE1=Fallen
TTITLE2=Little Beggar Girl
TTITLE3=Cook the Books
TTITLE4=Kid on the Mountain/Whelan's Jig
TTITLE5=Rainy View
TTITLE6=All Change
TTITLE7=Dollia
TTITLE8=66
TTITLE9=I Wish/Rochester Street
TTITLE10=Salty
TTITLE11=Riffwood
TTITLE12=Old Smokey
EXTD=YEAR: 2011
EXTT0=
EXTT1=
EXTT2=
EXTT3=
EXTT4=
EXTT5=
EXTT6=
EXTT7=
EXTT8=
EXTT9=
EXTT10=
EXTT11=
EXTT12=
PLAYORDER=
